<svg xmlns="http://www.w3.org/2000/svg" xmlns:xlink="http://www.w3.org/1999/xlink" viewBox="0 0 64 64">
	<defs>
		<clipPath id="a">
			<path id="shadow1cp" d="M45.38,57.31,42,58.84A28.09,28.09,0,0,0,58.44,32.56,28.8,28.8,0,0,0,29.72,4.28a27.56,27.56,0,0,0-11.1,2.41L22,5.16a27.6,27.6,0,0,1,11.1-2.41A28.79,28.79,0,0,1,61.85,31,28.08,28.08,0,0,1,45.38,57.31Z" style="fill:none"/>
		</clipPath>
		<clipPath id="b">
			<path d="M12.64,54.7l.18-.08.19-.08.2-.09.2-.09.2-.09.2-.09.19-.09.18-.08.22-.1.23-.1.24-.11.24-.11.25-.11.24-.11.23-.1.22-.1a28.19,28.19,0,0,0,18.24,6.55,27.56,27.56,0,0,0,11.1-2.41L42,58.84a27.56,27.56,0,0,1-11.1,2.41A28.21,28.21,0,0,1,12.64,54.7Z" style="fill:none"/>
		</clipPath>
		<clipPath id="c">
			<path d="M2.15,33A28.1,28.1,0,0,1,18.62,6.69L22,5.16A28.09,28.09,0,0,0,5.56,31.45,28.92,28.92,0,0,0,16.05,53.17L12.64,54.7A29,29,0,0,1,2.15,33Z" style="fill:none"/>
		</clipPath>
		<clipPath id="d">
			<path d="M45.79,58.22l-3.41,1.53a28.32,28.32,0,0,1-11.48,2.5A29.81,29.81,0,0,1,1.17,33a29.07,29.07,0,0,1,17-27.21l3.41-1.53a29.08,29.08,0,0,0-17,27.21A29.81,29.81,0,0,0,34.31,60.72,28.56,28.56,0,0,0,45.79,58.22Z" style="fill:none"/>
		</clipPath>
	</defs>
	<g style="isolation:isolate">
		<g style="isolation:isolate">
			<g style="clip-path:url(#a)">
				<g style="isolation:isolate">
					<path id="shadow1" d="M45.38,57.31,42,58.84A28.09,28.09,0,0,0,58.44,32.56,28.8,28.8,0,0,0,29.72,4.28a27.56,27.56,0,0,0-11.1,2.41L22,5.16a27.6,27.6,0,0,1,11.1-2.41A28.79,28.79,0,0,1,61.85,31,28.08,28.08,0,0,1,45.38,57.31" style="fill:#004a40"/>
				</g>
			</g>
		</g>
		<g style="isolation:isolate">
			<g style="clip-path:url(#b)">
				<g style="isolation:isolate">
					<path id="shadow2" d="M45.38,57.31,42,58.84a27.56,27.56,0,0,1-11.1,2.41A28.8,28.8,0,0,1,2.15,33,28.1,28.1,0,0,1,18.62,6.69L22,5.16A28.09,28.09,0,0,0,5.56,31.45,28.79,28.79,0,0,0,34.29,59.72a27.48,27.48,0,0,0,11.09-2.41" style="fill:#004a40"/>
				</g>
			</g>
		</g>
		<g style="isolation:isolate">
			<g style="clip-path:url(#c)">
				<g style="isolation:isolate">
					<path id="shadow3" d="M45.38,57.31,42,58.84a27.56,27.56,0,0,1-11.1,2.41A28.8,28.8,0,0,1,2.15,33,28.1,28.1,0,0,1,18.62,6.69L22,5.16A28.09,28.09,0,0,0,5.56,31.45,28.79,28.79,0,0,0,34.29,59.72a27.48,27.48,0,0,0,11.09-2.41" style="fill:#004a40"/>
				</g>
			</g>
		</g>
		<path id='tokenOutline' d="M33.1,1.75A29.81,29.81,0,0,1,62.83,31a28.89,28.89,0,0,1-28.52,29.7A29.81,29.81,0,0,1,4.57,31.46,28.9,28.9,0,0,1,33.1,1.75Zm1.19,58A27.91,27.91,0,0,0,61.85,31,28.79,28.79,0,0,0,33.12,2.75,27.9,27.9,0,0,0,5.56,31.45,28.79,28.79,0,0,0,34.29,59.72" style="fill:#25B39B"/>
		<path id='tokenCenter' d="M33.12,2.75A28.79,28.79,0,0,1,61.85,31,27.91,27.91,0,0,1,34.29,59.72,28.79,28.79,0,0,1,5.56,31.45,27.9,27.9,0,0,1,33.12,2.75Z" style="fill:#25B39B"/>
		<g style="isolation:isolate">
			<g style="clip-path:url(#d)">
				<g style="isolation:isolate">
					<path id="shadow4" d="M45.79,58.22l-3.41,1.53a28.32,28.32,0,0,1-11.48,2.5A29.81,29.81,0,0,1,1.17,33a29.07,29.07,0,0,1,17-27.21l3.41-1.53a29.08,29.08,0,0,0-17,27.21A29.81,29.81,0,0,0,34.31,60.72a28.56,28.56,0,0,0,11.48-2.5" style="fill:#004a40"/>
				</g>
			</g>
		</g>
		<g transform="translate(50 50) scale(0.69 0.69) rotate(0) translate(-50 -50)">
			<g>
				<path id="icon1" d="M41,30L34.8,9.9c-0.4-1.4-1.3-2.7-2.3-3.7l0.6,0.1l2,1.4l0.5-6.2c0.3-0.1,0.6-0.4,0.8-1
					c0.3-1,0.1-3.1-0.1-4.3c0.2,0,0.4-0.1,0.5-0.3l0.6-1.2c0.2-0.3,0-0.7-0.3-0.8L36-6.9c-0.3-0.2-0.7,0-0.8,0.3l0,0
					c-0.2,0-0.5,0.2-0.5,0.4c-0.1,0.4-0.1,0.7-0.1,1c0,0,0,0,0,0c0,0,0,0,0,0c0,0.1,0,0.3,0.1,0.4c0,0,0,0,0,0.1c0,0,0,0,0,0
					c0,0,0.1,0.1,0.1,0.1L35-4.6c-0.5,0.9-1.6,3.1-1.5,3.9c0.1,0.3,0.2,0.6,0.4,0.9l-3,4.7c-0.2-0.1-0.3-0.2-0.5-0.2
					c-0.3-0.1-0.7-0.2-1.1-0.2c0.8-0.5,1-1.4,1-2.4c0-1.6-1.9-3.2-2.8-3.2c-0.9,0-2.8,1.7-2.8,3.2c0,1,0.3,1.8,1,2.3
					c-0.5,0.1-1,0.2-1.4,0.3c-0.1,0-0.3,0.1-0.5,0.2l-3-4.7C21,0,21.2-0.3,21.2-0.7c0.1-0.9-1-3.1-1.5-3.9L20-4.7
					c0.1,0,0.1-0.1,0.1-0.1c0,0,0,0,0,0c0,0,0,0,0-0.1c0.1-0.1,0.1-0.2,0.1-0.4c0,0,0,0,0,0c0,0,0,0,0,0c0-0.3,0-0.6-0.1-1
					c-0.1-0.2-0.3-0.4-0.5-0.4l0,0C19.4-7,19.1-7.1,18.8-7l-1.3,0.7c-0.3,0.2-0.4,0.5-0.3,0.8l0.6,1.2C18-4.2,18.2-4,18.4-4
					c-0.2,1.2-0.4,3.3-0.1,4.3c0.2,0.6,0.5,0.9,0.8,1l0.5,6.2l2-1.4l0.6-0.1c-1,1-1.9,2.4-2.3,3.8L13.7,30c-0.7,2.3,0.6,3.5,2.8,2.8
					l2.8-0.9v10.7c0,0.4,0.3,4.6,0.7,4.6c0.4,0,0.7-4.2,0.7-4.6V31.4l1.8-0.6l1.9,4.1c-0.2,0.4-0.4,0.8-0.4,1.1c0,0,0.6,0.7,0.9,1.6
					c0.4,1.4,0.5,3.5,1,4.5c0.1,0.3,0.5,0.7,0.8,0.7c0.4-0.1,0.7-0.4,0.7-0.7c0,0.3,0.4,0.6,0.7,0.7c0.3,0,0.7-0.4,0.8-0.7
					c0.4-1,0.6-3,1-4.5c0.3-0.9,0.9-1.6,0.9-1.6c0-0.3-0.2-0.7-0.4-1.1l1.9-4.1l1.8,0.6v11.2c0,0.4,0.3,4.6,0.7,4.6s0.7-4.2,0.7-4.6
					V31.9l2.5,0.8C40.4,33.5,41.7,32.2,41,30z"/>
			</g>
		</g>
		<g transform="translate(50 50) scale(0.69 0.69) rotate(0) translate(-50 -50)">
			<path id="icon2" d="M50.7,16.1c-1.9-4.4-5.9-6.3-10.5-6.4c-6-0.1-12.4,1.2-18.3,1.9c-7,0.7-16.3,2.1-18.4,10.1
				c-0.9,3.6,0,8.1,2.1,11.1c2.2,3,6.4,3.6,9.8,3c2-0.4,3.9-1.4,5.5-2.5c1.6-1.2,3.8-4.2,6-3.8c1.9,0.3,3.6,2.4,5.4,3.1
				c2.1,0.8,4.6,1,6.8,0.8c4.1-0.3,8.5-0.9,10.7-4.8C52,24.9,52.4,19.9,50.7,16.1z M14.8,26.1c-1.4,0.3-2.8,0.2-3.8-0.2
				c-0.8-0.3-1-0.7-1-0.8l0,0c0-0.1,0.1-0.6,0.8-1.2c0.8-0.8,2.1-1.4,3.6-1.7c0.4-0.1,0.7-0.1,1-0.1c1.6,0,2.9,0.7,3.5,1.2
				C18.2,24.2,16.8,25.7,14.8,26.1z M38.5,24.2c-2.7,0-4.6-1.6-5.3-2.3c0.7-0.8,2.8-2.3,5.3-2.3c3.4,0,5.4,1.5,5.4,2.3
				C43.9,22.7,41.8,24.2,38.5,24.2z"/>
		</g>
	</g>

	<animate xlink:href="#tokenOutline" attributeName="fill" from="#25B39B" to="#69FFE6" dur="2s" repeatCount="1" fill="freeze"/>
    <animate xlink:href="#tokenCenter" attributeName="fill" from="#25B39B" to="#69FFE6" dur="2s" repeatCount="1" fill="freeze"/>
    <animate xlink:href="#shadow1" attributeName="fill" from="#004a40" to="#5a8279" dur="2s" repeatCount="1" fill="freeze"/>
    <animate xlink:href="#shadow2" attributeName="fill" from="#004a40" to="#5a8279" dur="2s" repeatCount="1" fill="freeze"/>
    <animate xlink:href="#shadow3" attributeName="fill" from="#004a40" to="#5a8279" dur="2s" repeatCount="1" fill="freeze"/>
    <animate xlink:href="#shadow4" attributeName="fill" from="#004a40" to="#5a8279" dur="2s" repeatCount="1" fill="freeze"/>
    <animate xlink:href="#icon1" attributeName="opacity" from="1" to="0" dur="1s" repeatCount="1" fill="freeze"/>
    <animate xlink:href="#icon2" attributeName="opacity" from="0" to="1" dur=".5s" repeatCount="1" fill="freeze"/>

</svg>