<?xml version="1.0" encoding="utf-8"?>
<!-- Generator: Adobe Illustrator 23.0.3, SVG Export Plug-In . SVG Version: 6.00 Build 0)  -->
<svg version="1.1" xmlns="http://www.w3.org/2000/svg" xmlns:xlink="http://www.w3.org/1999/xlink" x="0px" y="0px"
	 viewBox="0 0 64 64" style="enable-background:new 0 0 64 64;" xml:space="preserve">
<style type="text/css">
	@import url("https://use.typekit.net/qjh7lmr.css");
	.st0{fill:#ED1C24;}
	.st1{font-family:'CCMeanwhile-BoldItalic';}
	.st2{font-size:12px;}
</style>
<g id="Layer_2">
</g>
<g id="Layer_1">
	<polyline points="9.5,11.2 20.5,20.5 20.7,8 27,17.8 27.7,3.7 34.8,14.8 41.7,4 43.3,17.9 50.9,7.6 52.8,18.1 60.5,11.5 54.2,21.8 
		58.4,21.8 55.6,25.9 61.2,30.2 53.9,33.4 61.7,34.9 51.3,37.8 57.7,46.1 47.6,44.4 55.2,56.3 42.8,49.2 48.2,59.2 37.8,51.5 
		35.3,61 31.9,50.6 25.1,60 24.6,49.5 8.8,62.4 14,50.2 4.3,55.8 9.5,47.3 1.5,45.5 14,39.8 2.3,34.3 12,33.6 4.7,22.5 15,24.8 	"/>
	<text transform="matrix(0.956 -0.2933 0.2933 0.956 9.7821 46.1185)" class="st0 st1 st2">DANGER</text>
</g>
</svg>
