<svg xmlns="http://www.w3.org/2000/svg" xmlns:xlink="http://www.w3.org/1999/xlink" viewBox="0 0 64 64">
	<defs>
		<clipPath id="a">
			<path d="M45.25,57.56,42.13,59A28.33,28.33,0,0,0,58.82,32.7,28.93,28.93,0,0,0,30.13,4,27.83,27.83,0,0,0,18.75,6.45l3.12-1.39A27.67,27.67,0,0,1,33.25,2.64,28.93,28.93,0,0,1,61.94,31.31,28.34,28.34,0,0,1,45.25,57.56Z" style="fill:none"/>
		</clipPath>
		<clipPath id="b">
			<path d="M15.92,57.16l.09,0,.09,0,.09,0,.1,0,.09,0,.09,0,.09,0,.09,0,.28-.13.3-.13.3-.14.32-.14.31-.14.31-.13.29-.14.28-.12A28.31,28.31,0,0,0,33.88,60a27.81,27.81,0,0,0,11.37-2.41L42.13,59a27.67,27.67,0,0,1-11.38,2.42A28.22,28.22,0,0,1,15.92,57.16Z" style="fill:none"/>
		</clipPath>
		<clipPath id="c">
			<path d="M2.06,32.7A28.33,28.33,0,0,1,18.75,6.45l3.12-1.39A28.32,28.32,0,0,0,5.18,31.31,29.13,29.13,0,0,0,19,55.77l-3.12,1.39A29.1,29.1,0,0,1,2.06,32.7Z" style="fill:none"/>
		</clipPath>
		<clipPath id="d">
			<path d="M45.66,58.47l-3.13,1.4a28.82,28.82,0,0,1-11.76,2.5A30,30,0,0,1,1.07,32.7,29.34,29.34,0,0,1,18.35,5.53l3.12-1.4A29.34,29.34,0,0,0,4.19,31.31,30,30,0,0,0,33.89,61,28.74,28.74,0,0,0,45.66,58.47Z" style="fill:none"/>
		</clipPath>
	</defs>
	<g style="isolation:isolate" id="token2">
		<g style="isolation:isolate">
			<g style="clip-path:url(#a)">
				<g style="isolation:isolate">
					<path class="shadow" d="M45.25,57.56,42.13,59A28.33,28.33,0,0,0,58.82,32.7,28.93,28.93,0,0,0,30.13,4,27.83,27.83,0,0,0,18.75,6.45l3.12-1.39A27.67,27.67,0,0,1,33.25,2.64,28.93,28.93,0,0,1,61.94,31.31,28.34,28.34,0,0,1,45.25,57.56" style="fill:#004a40"/>
				</g>
			</g>
		</g>
		<g style="isolation:isolate">
			<g style="clip-path:url(#b)">
				<g style="isolation:isolate">
					<path class="shadow" d="M45.25,57.56,42.13,59a27.67,27.67,0,0,1-11.38,2.42A28.94,28.94,0,0,1,2.06,32.7,28.33,28.33,0,0,1,18.75,6.45l3.12-1.39A28.32,28.32,0,0,0,5.18,31.31,28.93,28.93,0,0,0,33.88,60a27.81,27.81,0,0,0,11.37-2.41" style="fill:#004a40"/>
				</g>
			</g>
		</g>
		<g style="isolation:isolate">
			<g style="clip-path:url(#c)">
				<g style="isolation:isolate">
					<path class="shadow" d="M45.25,57.56,42.13,59a27.67,27.67,0,0,1-11.38,2.42A28.94,28.94,0,0,1,2.06,32.7,28.33,28.33,0,0,1,18.75,6.45l3.12-1.39A28.32,28.32,0,0,0,5.18,31.31,28.93,28.93,0,0,0,33.88,60a27.81,27.81,0,0,0,11.37-2.41" style="fill:#004a40"/>
				</g>
			</g>
		</g>
		<ellipse class="token" cx="33.56" cy="31.31" rx="28.31" ry="28.74" transform="translate(-9.85 16.42) rotate(-24.08)" style="fill:#25B39B"/>
		<path class="token" d="M33.24,1.63A30,30,0,0,1,62.93,31.31,29.16,29.16,0,0,1,33.89,61,30,30,0,0,1,4.19,31.31,29.18,29.18,0,0,1,33.24,1.63ZM33.88,60A28.17,28.17,0,0,0,61.94,31.31,28.93,28.93,0,0,0,33.25,2.64,28.18,28.18,0,0,0,5.18,31.31,28.93,28.93,0,0,0,33.88,60" style="fill:#25B39B"/>
		<g style="isolation:isolate">
			<g style="clip-path:url(#d)">
				<g style="isolation:isolate"
					><path class="shadow" d="M45.66,58.47l-3.13,1.4a28.82,28.82,0,0,1-11.76,2.5A30,30,0,0,1,1.07,32.7,29.34,29.34,0,0,1,18.35,5.53l3.12-1.4A29.34,29.34,0,0,0,4.19,31.31,30,30,0,0,0,33.89,61a28.74,28.74,0,0,0,11.77-2.5" style="fill:#004a40"/>
				</g>
			</g>
		</g>
		<g transform="translate(50 50) scale(0.69 0.69) rotate(0) translate(-50 -50)">
			<g>
				<path class="st6" d="M41,30L34.8,9.9c-0.4-1.4-1.3-2.7-2.3-3.7l0.6,0.1l2,1.4l0.5-6.2c0.3-0.1,0.6-0.4,0.8-1
					c0.3-1,0.1-3.1-0.1-4.3c0.2,0,0.4-0.1,0.5-0.3l0.6-1.2c0.2-0.3,0-0.7-0.3-0.8L36-6.9c-0.3-0.2-0.7,0-0.8,0.3l0,0
					c-0.2,0-0.5,0.2-0.5,0.4c-0.1,0.4-0.1,0.7-0.1,1c0,0,0,0,0,0c0,0,0,0,0,0c0,0.1,0,0.3,0.1,0.4c0,0,0,0,0,0.1c0,0,0,0,0,0
					c0,0,0.1,0.1,0.1,0.1L35-4.6c-0.5,0.9-1.6,3.1-1.5,3.9c0.1,0.3,0.2,0.6,0.4,0.9l-3,4.7c-0.2-0.1-0.3-0.2-0.5-0.2
					c-0.3-0.1-0.7-0.2-1.1-0.2c0.8-0.5,1-1.4,1-2.4c0-1.6-1.9-3.2-2.8-3.2c-0.9,0-2.8,1.7-2.8,3.2c0,1,0.3,1.8,1,2.3
					c-0.5,0.1-1,0.2-1.4,0.3c-0.1,0-0.3,0.1-0.5,0.2l-3-4.7C21,0,21.2-0.3,21.2-0.7c0.1-0.9-1-3.1-1.5-3.9L20-4.7
					c0.1,0,0.1-0.1,0.1-0.1c0,0,0,0,0,0c0,0,0,0,0-0.1c0.1-0.1,0.1-0.2,0.1-0.4c0,0,0,0,0,0c0,0,0,0,0,0c0-0.3,0-0.6-0.1-1
					c-0.1-0.2-0.3-0.4-0.5-0.4l0,0C19.4-7,19.1-7.1,18.8-7l-1.3,0.7c-0.3,0.2-0.4,0.5-0.3,0.8l0.6,1.2C18-4.2,18.2-4,18.4-4
					c-0.2,1.2-0.4,3.3-0.1,4.3c0.2,0.6,0.5,0.9,0.8,1l0.5,6.2l2-1.4l0.6-0.1c-1,1-1.9,2.4-2.3,3.8L13.7,30c-0.7,2.3,0.6,3.5,2.8,2.8
					l2.8-0.9v10.7c0,0.4,0.3,4.6,0.7,4.6c0.4,0,0.7-4.2,0.7-4.6V31.4l1.8-0.6l1.9,4.1c-0.2,0.4-0.4,0.8-0.4,1.1c0,0,0.6,0.7,0.9,1.6
					c0.4,1.4,0.5,3.5,1,4.5c0.1,0.3,0.5,0.7,0.8,0.7c0.4-0.1,0.7-0.4,0.7-0.7c0,0.3,0.4,0.6,0.7,0.7c0.3,0,0.7-0.4,0.8-0.7
					c0.4-1,0.6-3,1-4.5c0.3-0.9,0.9-1.6,0.9-1.6c0-0.3-0.2-0.7-0.4-1.1l1.9-4.1l1.8,0.6v11.2c0,0.4,0.3,4.6,0.7,4.6s0.7-4.2,0.7-4.6
					V31.9l2.5,0.8C40.4,33.5,41.7,32.2,41,30z"/>
				<path class="st6" d="M38.3,39.5c-0.4,0-0.7,0.3-0.7,0.7v6.6c0,0.4,0.3,4.6,0.7,4.6s0.7-4.2,0.7-4.6v-6.6
					C39,39.8,38.7,39.5,38.3,39.5z"/>
				<path class="st6" d="M16.5,39.5L16.5,39.5c-0.4,0-0.7,0.3-0.7,0.7v6.6c0,0.4,0.3,4.6,0.7,4.6l0,0c0.4,0,0.7-4.2,0.7-4.6v-6.6
					C17.2,39.8,16.9,39.5,16.5,39.5z"/>
			</g>
		</g>
	</g>
</svg>