<svg xmlns="http://www.w3.org/2000/svg" xmlns:xlink="http://www.w3.org/1999/xlink" viewBox="0 0 64 64">
	<defs>
		<clipPath id="a">
			<path d="M45.25,57.56,42.13,59A28.33,28.33,0,0,0,58.82,32.7,28.93,28.93,0,0,0,30.13,4,27.83,27.83,0,0,0,18.75,6.45l3.12-1.39A27.67,27.67,0,0,1,33.25,2.64,28.93,28.93,0,0,1,61.94,31.31,28.34,28.34,0,0,1,45.25,57.56Z" style="fill:none"/>
		</clipPath>
		<clipPath id="b">
			<path d="M15.92,57.16l.09,0,.09,0,.09,0,.1,0,.09,0,.09,0,.09,0,.09,0,.28-.13.3-.13.3-.14.32-.14.31-.14.31-.13.29-.14.28-.12A28.31,28.31,0,0,0,33.88,60a27.81,27.81,0,0,0,11.37-2.41L42.13,59a27.67,27.67,0,0,1-11.38,2.42A28.22,28.22,0,0,1,15.92,57.16Z" style="fill:none"/>
		</clipPath>
		<clipPath id="c">
			<path d="M2.06,32.7A28.33,28.33,0,0,1,18.75,6.45l3.12-1.39A28.32,28.32,0,0,0,5.18,31.31,29.13,29.13,0,0,0,19,55.77l-3.12,1.39A29.1,29.1,0,0,1,2.06,32.7Z" style="fill:none"/>
		</clipPath>
		<clipPath id="d">
			<path d="M45.66,58.47l-3.13,1.4a28.82,28.82,0,0,1-11.76,2.5A30,30,0,0,1,1.07,32.7,29.34,29.34,0,0,1,18.35,5.53l3.12-1.4A29.34,29.34,0,0,0,4.19,31.31,30,30,0,0,0,33.89,61,28.74,28.74,0,0,0,45.66,58.47Z" style="fill:none"/>
		</clipPath>
	</defs>
	<g style="isolation:isolate" id="token2">
		<g style="isolation:isolate">
			<g style="clip-path:url(#a)">
				<g style="isolation:isolate">
					<path class="shadow" d="M45.25,57.56,42.13,59A28.33,28.33,0,0,0,58.82,32.7,28.93,28.93,0,0,0,30.13,4,27.83,27.83,0,0,0,18.75,6.45l3.12-1.39A27.67,27.67,0,0,1,33.25,2.64,28.93,28.93,0,0,1,61.94,31.31,28.34,28.34,0,0,1,45.25,57.56" style="fill:#004a40"/>
				</g>
			</g>
		</g>
		<g style="isolation:isolate">
			<g style="clip-path:url(#b)">
				<g style="isolation:isolate">
					<path class="shadow" d="M45.25,57.56,42.13,59a27.67,27.67,0,0,1-11.38,2.42A28.94,28.94,0,0,1,2.06,32.7,28.33,28.33,0,0,1,18.75,6.45l3.12-1.39A28.32,28.32,0,0,0,5.18,31.31,28.93,28.93,0,0,0,33.88,60a27.81,27.81,0,0,0,11.37-2.41" style="fill:#004a40"/>
				</g>
			</g>
		</g>
		<g style="isolation:isolate">
			<g style="clip-path:url(#c)">
				<g style="isolation:isolate">
					<path class="shadow" d="M45.25,57.56,42.13,59a27.67,27.67,0,0,1-11.38,2.42A28.94,28.94,0,0,1,2.06,32.7,28.33,28.33,0,0,1,18.75,6.45l3.12-1.39A28.32,28.32,0,0,0,5.18,31.31,28.93,28.93,0,0,0,33.88,60a27.81,27.81,0,0,0,11.37-2.41" style="fill:#004a40"/>
				</g>
			</g>
		</g>
		<ellipse class="token" cx="33.56" cy="31.31" rx="28.31" ry="28.74" transform="translate(-9.85 16.42) rotate(-24.08)" style="fill:#25B39B"/>
		<path class="token" d="M33.24,1.63A30,30,0,0,1,62.93,31.31,29.16,29.16,0,0,1,33.89,61,30,30,0,0,1,4.19,31.31,29.18,29.18,0,0,1,33.24,1.63ZM33.88,60A28.17,28.17,0,0,0,61.94,31.31,28.93,28.93,0,0,0,33.25,2.64,28.18,28.18,0,0,0,5.18,31.31,28.93,28.93,0,0,0,33.88,60" style="fill:#25B39B"/>
		<g style="isolation:isolate">
			<g style="clip-path:url(#d)">
				<g style="isolation:isolate"
					><path class="shadow" d="M45.66,58.47l-3.13,1.4a28.82,28.82,0,0,1-11.76,2.5A30,30,0,0,1,1.07,32.7,29.34,29.34,0,0,1,18.35,5.53l3.12-1.4A29.34,29.34,0,0,0,4.19,31.31,30,30,0,0,0,33.89,61a28.74,28.74,0,0,0,11.77-2.5" style="fill:#004a40"/>
				</g>
			</g>
		</g>
	</g>
</svg>